{"title":"Dark Power 2013 VODRiP XViD UNiQUE","uid":8715295,"size":1542777171,"categoryP":"video","categoryS":"movies","magnet":"?xt=urn:btih:ec164d757dc5b8aa0eebc8426d625ab748a27b5a&amp;dn=Dark+Power+2013+VODRiP+XViD+UNiQUE&amp;tr=udp%3A%2F%2Ftracker.openbittorrent.com%3A80&amp;tr=udp%3A%2F%2Fopen.demonii.com%3A1337&amp;tr=udp%3A%2F%2Ftracker.coppersurfer.tk%3A6969&amp;tr=udp%3A%2F%2Fexodus.desync.com%3A6969","seeders":2,"leechers":0,"uploader":"xxxlavalxxx","files":-1,"time":1374318367,"description":"\n &lt;a href=&quot;\nhttp://www.imdb.com/title/tt2132301/&quot; rel=&quot;nofollow&quot; target=&quot;_NEW&quot;&gt;\nhttp://www.imdb.com/title/tt2132301/&lt;/a&gt;\n\n\nDirector:\n John Milton Branton \n\nWriters:\n Miguel Pagan (screenplay), Miguel Pagan (story), 1 more credit Â» \n\nStars:\n Sean Patrick Flanery, Kristanna Loken, Chris Carmack \n\nGenres:\n  Thriller \n\nCountry:\n USA \n\nLanguage:\n English \n\n\n\n\n\nWhen a crime-ridden city's mayor and his re-election opponent are both assassinated in quick succession, two investigating FBI agents discover that City Hall holds more secrets than just the identity of the killer.\n\nAs they begin piecing together clues, the two reluctant partners, Agent Archer (Sean Patrick Flanery) and Agent Driver (Kristanna Loken), learn that they are pursuing well-trained professionals who will stop at nothing in order to succeed with their plan. As the two agents gradually develop a mutual professional respect, they also begin to unravel a far-reaching criminal conspiracy that puts all the citys residents at grave risk.\n\nArcher must also deal with his terminally ill mother, the towns Vice Mayor Elizabeth Archer (Morgan Fairchild), whose family secrets she has kept from her son his entire life. The Mayors most trusted aide James Durant (Chris Carmack), whose access to the Mayors life is unsurpassed, seems above reproach until he announces his own candidacy for the open Mayoral seat.\n\nAs their investigation deepens, the agents suddenly realize that they are confronted by a mysterious, centuries-old, powerful adversary, and they cannot trust anyone other than each other. When Archer and Driver suddenly become the hunted -- solving the murders becomes secondary to their own survival. \n\n\n\nFormat                                   : AVI\n Format/Info                              : Audio Video Interleave\n File size                                : 1.43 GiB\n Duration                                 : 1h 36mn\n Overall bit rate                         : 2 107 Kbps\n Writing application                      : VirtualDubMod 1.5.10.2 (build 2540/release)\n Writing library                          : VirtualDubMod build 2540/release\n\n Video\n ID                                       : 0\n Format                                   : MPEG-4 Visual\n Format profile                           : Advanced Simple@L5\n Format settings, BVOP                    : 2\n Format settings, QPel                    : No\n Format settings, GMC                     : No warppoints\n Format settings, Matrix                  : Default (H.263)\n Muxing mode                              : Packed bitstream\n Codec ID                                 : XVID\n Codec ID/Hint                            : XviD\n Duration                                 : 1h 36mn\n Bit rate                                 : 1 905 Kbps\n Width                                    : 720 pixels\n Height                                   : 400 pixels\n Display aspect ratio                     : 16:9\n Frame rate                               : 23.976 fps\n Color space                              : YUV\n Chroma subsampling                       : 4:2:0\n Bit depth                                : 8 bits\n Scan type                                : Progressive\n Compression mode                         : Lossy\n Bits/(Pixel*Frame)                       : 0.276\n Stream size                              : 1.29 GiB (90%)\n Writing library                          : XviD 64\n\n Audio\n ID                                       : 1\n Format                                   : AC-3\n Format/Info                              : Audio Coding 3\n Mode extension                           : CM (complete main)\n Format settings, Endianness              : Big\n Codec ID                                 : 2000\n Duration                                 : 1h 36mn\n Bit rate mode                            : Constant\n Bit rate                                 : 192 Kbps\n Channel(s)                               : 2 channels\n Channel positions                        : Front: L R\n Sampling rate                            : 48.0 KHz\n Bit depth                                : 16 bits\n Compression mode                         : Lossy\n Stream size                              : 133 MiB (9%)\n Alignment                                : Split accross interleaves\n Interleave, duration                     : 42 ms (1.00 video frame)\n Interleave, preload duration             : 500 ms\n\n\n\n\n\nscreens\n\n\n    &lt;a href=&quot;\thttp://addpix.net/viewer.php?file=17798859937179389801.jpg&quot; rel=&quot;nofollow&quot; target=&quot;_NEW&quot;&gt;\thttp://addpix.net/viewer.php?file=17798859937179389801.jpg&lt;/a&gt;\n    &lt;a href=&quot;\thttp://addpix.net/viewer.php?file=94975116018533629270.jpg&quot; rel=&quot;nofollow&quot; target=&quot;_NEW&quot;&gt;\thttp://addpix.net/viewer.php?file=94975116018533629270.jpg&lt;/a&gt;\n    &lt;a href=&quot;\thttp://addpix.net/viewer.php?file=81203140038521982837.jpg&quot; rel=&quot;nofollow&quot; target=&quot;_NEW&quot;&gt;\thttp://addpix.net/viewer.php?file=81203140038521982837.jpg&lt;/a&gt;","torrent":{"xt":"urn:btih:ec164d757dc5b8aa0eebc8426d625ab748a27b5a","amp;dn":"Dark+Power+2013+VODRiP+XViD+UNiQUE","amp;tr":["udp%3A%2F%2Ftracker.openbittorrent.com%3A80","udp%3A%2F%2Fopen.demonii.com%3A1337","udp%3A%2F%2Ftracker.coppersurfer.tk%3A6969","udp%3A%2F%2Fexodus.desync.com%3A6969"],"infoHash":"ec164d757dc5b8aa0eebc8426d625ab748a27b5a","infoHashBuffer":{"type":"Buffer","data":[236,22,77,117,125,197,184,170,14,235,200,66,109,98,90,183,72,162,123,90]},"announce":[],"urlList":[]}}